GIL01_free4_RRA_states
nRows=5
nColumns=47

# SIMM Motion File Header:
name GIL01_free4_RRA_states
datacolumns 47
datarows 5
otherdata 1
range 0.64983000000000035000 0.65183000000000035000
endheader
time	pelvis_tx	pelvis_ty	pelvis_tz	pelvis_tilt	pelvis_list	pelvis_rotation	hip_flexion_r	hip_adduction_r	hip_rotation_r	knee_angle_r	ankle_angle_r	subtalar_angle_r	mtp_angle_r	hip_flexion_l	hip_adduction_l	hip_rotation_l	knee_angle_l	ankle_angle_l	subtalar_angle_l	mtp_angle_l	lumbar_extension	lumbar_bending	lumbar_rotation	pelvis_tx_u	pelvis_ty_u	pelvis_tz_u	pelvis_tilt_u	pelvis_list_u	pelvis_rotation_u	hip_flexion_r_u	hip_adduction_r_u	hip_rotation_r_u	knee_angle_r_u	ankle_angle_r_u	subtalar_angle_r_u	mtp_angle_r_u	hip_flexion_l_u	hip_adduction_l_u	hip_rotation_l_u	knee_angle_l_u	ankle_angle_l_u	subtalar_angle_l_u	mtp_angle_l_u	lumbar_extension_u	lumbar_bending_u	lumbar_rotation_u
      0.64983000000000035000	      0.50290286974612364000	      0.77055066358427582000	     -0.29123939295997070000	     -2.44044526532019510000	     -2.77909162146403110000	      3.54753154907321110000	     27.99507504091465300000	      1.98361393430349310000	     -1.10395312261436820000	    -10.03477050772429300000	    -10.80483282961459100000	      0.00000000000000953674	     -0.00000000000000686697	    -19.03462869346229900000	     -3.63066026892472050000	    -11.76142714197751500000	    -10.82891973597579500000	      9.78356623494986980000	      0.00000000000001353298	      0.00000000000002184790	      0.98776717718281581000	      3.65084113318540560000	    -11.06495349074720000000	      1.26512090178696530000	      0.02852361769151383700	      0.22870221307985761000	     16.32631466295999100000	    -36.23162833853282200000	    -45.91053216091847800000	     -2.36292612986961400000	     85.26262089824503200000	    113.67287232995814000000	   -191.40395159406049000000	    -31.18241075098819000000	      0.00000000000000630453	     -0.00000000000001350813	    -24.36411819508816700000	    -61.93166049743323500000	    -11.92540467399836100000	   -146.78657011030359000000	   -138.49487602843212000000	      0.00000000000056813783	     -0.00000000000073925727	     -0.15414025279758339000	     42.52926923640230700000	     23.26005313359035800000
      0.65033000000000041000	      0.50353545493255314000	      0.77056527624008309000	     -0.29112503928422773000	     -2.43227702071986940000	     -2.79718091860395780000	      3.52458256242364240000	     27.99374306444836700000	      2.02625334571899570000	     -1.04668914754920150000	    -10.13029858904652200000	    -10.81992530597617600000	      0.00000000000000954209	     -0.00000000000000688024	    -19.04658523697571200000	     -3.66160792325077590000	    -11.76722239640096200000	    -10.90263296988002400000	      9.71393909066014060000	      0.00000000000001382010	      0.00000000000002147247	      0.98767884134865758000	      3.67208336954503520000	    -11.05337733138669000000	      1.26521791377894770000	      0.02992479168212083800	      0.22870986445666919000	     16.34609841122972900000	    -36.12504318915946300000	    -45.88411618931844100000	     -2.96479587574516000000	     85.29377257567316000000	    115.37883184281769000000	   -190.70750298108857000000	    -29.18551900291224400000	      0.00000000000001169128	     -0.00000000000003603937	    -23.46001501770519600000	    -61.85869829861763200000	    -11.25501300549002300000	   -148.06733580158664000000	   -140.01746766339539000000	      0.00000000000059461486	     -0.00000000000078714998	     -0.19869317601729672000	     42.43909016797951500000	     23.04307265967566600000
      0.65083000000000035000	      0.50416808570290950000	      0.77058058616838143000	     -0.29101068572610311000	     -2.42409972240109890000	     -2.81521614310679440000	      3.50164874497811910000	     27.99211039689527800000	      2.06890644122283530000	     -0.98857857787612591000	    -10.22547702594989300000	    -10.83401664924438800000	      0.00000000000000954894	     -0.00000000000000690084	    -19.05808668336145900000	     -3.69251870844305730000	    -11.77268156253433100000	    -10.97698805475004300000	      9.64354528825879600000	      0.00000000000001411801	      0.00000000000002107588	      0.98756898083852895000	      3.69327962764394750000	    -11.04191193950658900000	      1.26530318349327820000	      0.03131271869886664800	      0.22870173256661744000	     16.36254912290733900000	    -36.01532941468609300000	    -45.84982785050736700000	     -3.56575364739854980000	     85.31733084098323200000	    117.05906742048273000000	   -190.00514458942379000000	    -27.17842961164235000000	      0.00000000000001954951	     -0.00000000000005227743	    -22.54376224170480500000	    -61.78418403003348700000	    -10.58106790259736700000	   -149.35399768858466000000	   -141.56093157244985000000	      0.00000000000060575911	     -0.00000000000083059027	     -0.24026497546878603000	     42.34533755184685300000	     22.81696411919984900000
      0.65133000000000041000	      0.50480075611852138000	      0.77059658675495890000	     -0.29089634017172455000	     -2.41591502553630640000	     -2.83319573645198020000	      3.47873404630662450000	     27.99017746495539100000	      2.11156941452586770000	     -0.92963447875144245000	    -10.32030276182750800000	    -10.84710212408701200000	      0.00000000000000955865	     -0.00000000000000692746	    -19.06912698714325700000	     -3.72339185946520870000	    -11.77780290266249000000	    -11.05198792451368200000	      9.57237464617304210000	      0.00000000000001442030	      0.00000000000002065125	      0.98743906912800516000	      3.71442811955788610000	    -11.03056188444932900000	      1.26537646789510320000	      0.03268742130194506000	      0.22867788069864495000	     16.37567616863260500000	    -35.90254673153407300000	    -45.80766934468304900000	     -4.16578588474230220000	     85.33331752271894300000	    118.71290987326466000000	   -189.29695393166230000000	    -25.16167030620782400000	      0.00000000000002148943	     -0.00000000000006555266	    -21.61543827621211700000	    -61.70818330456663900000	     -9.90375407611734280000	   -150.64639933584053000000	   -143.12547143115563000000	      0.00000000000063125089	     -0.00000000000093779700	     -0.27888020474809988000	     42.24806022925657300000	     22.58175295627431500000
      0.65183000000000035000	      0.50543346012938373000	      0.77061327138868496000	     -0.29078201045232960000	     -2.40772459983286020000	     -2.85111818626483290000	      3.45584238451127530000	     27.98794477538041300000	      2.15423849896292640000	     -0.86987017660102450000	    -10.41477302812401400000	    -10.85917681798198100000	      0.00000000000000956934	     -0.00000000000000695945	    -19.07970012156195900000	     -3.75422665191185830000	    -11.78258478695870300000	    -11.12763538564970000000	      9.50041627326342210000	      0.00000000000001473317	      0.00000000000002019311	      0.98729059002907682000	      3.73552710615687560000	    -11.01933169620672400000	      1.26543750348617730000	      0.03404891642889820700	      0.22863838759955687000	     16.38548154091719100000	    -35.78674326416464900000	    -45.75765779332244400000	     -4.76483106446955950000	     85.34174606767437900000	    120.33969953349994000000	   -188.58305151489100000000	    -23.13589975609804500000	      0.00000000000001715252	     -0.00000000000004889480	    -20.67511501317557400000	    -61.63074417394727100000	     -9.22326360239885550000	   -151.94438869520786000000	   -144.71127073170229000000	      0.00000000000063045765	     -0.00000000000092022575	     -0.31455894219603547000	     42.14729332120307200000	     22.33748432853497000000
